<?xml version="1.0" standalone="no"?>
<!DOCTYPE svg PUBLIC "-//W3C//DTD SVG 20010904//EN"
 "http://www.w3.org/TR/2001/REC-SVG-20010904/DTD/svg10.dtd">
<svg version="1.0" xmlns="http://www.w3.org/2000/svg"
 width="700.000000pt" height="700.000000pt" viewBox="0 0 700.000000 700.000000"
 preserveAspectRatio="xMidYMid meet">
<metadata>
Created by potrace 1.14, written by Peter Selinger 2001-2017
</metadata>
<g transform="translate(0.000000,700.000000) scale(0.100000,-0.100000)"
fill="#000000" stroke="none">
<path d="M1905 6370 l-1590 -568 3 -44 c5 -84 472 -4143 480 -4166 5 -18 301
-186 1359 -772 l1353 -749 1347 746 c742 410 1351 749 1355 752 5 4 465 3949
491 4210 2 23 -58 45 -1593 592 -877 313 -1599 569 -1605 568 -5 0 -725 -257
-1600 -569z m1949 -1595 c135 -60 246 -111 246 -115 0 -3 -317 -153 -705 -335
l-705 -330 3 -219 2 -218 109 -49 c60 -27 113 -49 118 -49 4 0 9 95 10 211 l3
210 255 120 c140 66 461 217 712 335 l457 214 241 -107 c264 -117 296 -139
347 -235 l28 -53 0 -675 0 -675 -27 -55 c-57 -116 -49 -112 -723 -401 -635
-272 -666 -283 -765 -268 -25 4 -319 125 -655 269 -567 242 -613 264 -657 307
-26 25 -57 69 -70 97 l-23 51 0 675 0 675 25 50 c53 108 47 104 730 407 344
152 641 278 660 280 87 7 138 -8 384 -117z"/>
<path d="M4536 3818 c-24 -22 -186 -356 -186 -383 0 -23 17 -26 56 -10 20 8
40 15 45 15 5 0 9 -110 9 -245 0 -239 0 -245 20 -245 17 0 146 52 152 62 1 2
5 120 8 262 l5 260 46 24 c26 13 51 34 57 47 10 21 7 29 -16 57 -62 76 -155
178 -163 178 -4 0 -19 -10 -33 -22z"/>
<path d="M3927 3523 c-25 -28 -169 -354 -163 -369 7 -18 24 -17 56 1 14 8 28
14 31 15 3 0 9 -105 13 -232 4 -128 11 -237 16 -242 12 -12 139 43 151 65 5
10 9 125 9 256 l0 239 44 21 c49 24 65 54 44 81 -71 91 -155 182 -168 182 -9
0 -24 -8 -33 -17z"/>
<path d="M4255 2756 c-297 -127 -546 -235 -552 -239 -14 -9 -18 -73 -5 -81 7
-4 1076 440 1115 463 11 8 17 24 17 51 0 32 -4 40 -17 39 -10 -1 -261 -105
-558 -233z"/>
</g>
</svg>
